<svg version="1.1" viewBox="0.0 0.0 869.8398950131234 100.0" fill="none" stroke="none" stroke-linecap="square" stroke-miterlimit="10" xmlns:xlink="http://www.w3.org/1999/xlink" xmlns="http://www.w3.org/2000/svg"><clipPath id="p.0"><path d="m0 0l869.8399 0l0 100.0l-869.8399 0l0 -100.0z" clip-rule="nonzero"/></clipPath><g clip-path="url(#p.0)"><path fill="#000000" fill-opacity="0.0" d="m0 0l869.8399 0l0 100.0l-869.8399 0z" fill-rule="evenodd"/><path fill="#307bf3" d="m416.617 42.204918l205.60626 0l0 14.015747l-205.60626 0z" fill-rule="evenodd"/><path fill="#000000" fill-opacity="0.0" d="m417.1644 18.374443l0 37.732285" fill-rule="evenodd"/><path stroke="#616161" stroke-width="1.0" stroke-linejoin="round" stroke-linecap="butt" d="m417.1644 18.374443l0 37.732285" fill-rule="evenodd"/><path fill="#616161" d="m412.31403 17.720888l0 0c0 -2.6787987 2.1716003 -4.8503942 4.8503723 -4.8503942l0 0c1.2864075 0 2.5201416 0.51102257 3.4297485 1.4206476c0.90963745 0.90962505 1.4206543 2.143343 1.4206543 3.4297466l0 0c0 2.6787987 -2.1716003 4.8503933 -4.850403 4.8503933l0 0c-2.678772 0 -4.8503723 -2.1715946 -4.8503723 -4.8503933z" fill-rule="evenodd"/><path fill="#307bf3" d="m5.4147015 42.204918l205.6063 0l0 14.015747l-205.6063 0z" fill-rule="evenodd"/><path fill="#000000" fill-opacity="0.0" d="m4.8504133 18.374443l0 37.732285" fill-rule="evenodd"/><path stroke="#616161" stroke-width="1.0" stroke-linejoin="round" stroke-linecap="butt" d="m4.8504133 18.374443l0 37.732285" fill-rule="evenodd"/><path fill="#616161" d="m1.968504E-5 17.720888l0 0c0 -2.6787987 2.171595 -4.8503942 4.850394 -4.8503942l0 0c1.2864046 0 2.520121 0.51102257 3.4297466 1.4206476c0.90962505 0.90962505 1.4206467 2.143343 1.4206467 3.4297466l0 0c0 2.6787987 -2.1715946 4.8503933 -4.8503933 4.8503933l0 0c-2.6787984 0 -4.850394 -2.1715946 -4.850394 -4.8503933z" fill-rule="evenodd"/><path fill="#0944a1" d="m211.016 42.204918l205.60631 0l0 14.015747l-205.60631 0z" fill-rule="evenodd"/><path fill="#000000" fill-opacity="0.0" d="m211.4696 79.93639l0 -37.73228" fill-rule="evenodd"/><path stroke="#616161" stroke-width="1.0" stroke-linejoin="round" stroke-linecap="butt" d="m211.4696 79.93639l0 -37.73228" fill-rule="evenodd"/><path fill="#616161" d="m216.32 80.58995l0 0c0 2.6788025 -2.1716003 4.850395 -4.850403 4.850395l0 0c-1.2864075 0 -2.520111 -0.5110245 -3.4297485 -1.4206467c-0.9096222 -0.9096298 -1.420639 -2.143341 -1.420639 -3.4297485l0 0c0 -2.6787949 2.171585 -4.850395 4.8503876 -4.850395l0 0c2.6788025 0 4.850403 2.1716003 4.850403 4.850395z" fill-rule="evenodd"/><path fill="#000000" fill-opacity="0.0" d="m3.1391077 0l159.52756 0l0 42.204723l-159.52756 0z" fill-rule="evenodd"/><path fill="#616161" d="m16.748482 17.255625q0 -0.453125 -0.3125 -0.6875q-0.3125 -0.234375 -1.124999 -0.484375q-0.8125 -0.265625 -1.28125 -0.53125q-1.296875 -0.6875 -1.296875 -1.875q0 -0.609375 0.34375 -1.09375q0.34375 -0.484375 0.984375 -0.75q0.65625 -0.28125 1.46875 -0.28125q0.81249905 0 1.437499 0.296875q0.640625 0.296875 0.984375 0.84375q0.359375 0.53125 0.359375 1.203125l-1.5625 0q0 -0.515625 -0.328125 -0.796875q-0.328125 -0.296875 -0.92187405 -0.296875q-0.578125 0 -0.890625 0.25q-0.3125 0.234375 -0.3125 0.625q0 0.375 0.359375 0.625q0.375 0.25 1.109375 0.46875q1.328124 0.40625 1.937499 1.0q0.609375 0.59375 0.609375 1.46875q0 0.984375 -0.75 1.546875q-0.734375 0.5625 -1.999999 0.5625q-0.875 0 -1.59375 -0.3125q-0.71875 -0.328125 -1.09375 -0.890625q-0.375 -0.5625 -0.375 -1.296875l1.5625 0q0 1.265625 1.5 1.265625q0.56249905 0 0.87499905 -0.21875q0.3125 -0.234375 0.3125 -0.640625zm2.285263 -0.875q0 -0.84375 0.3125 -1.5q0.328125 -0.65625 0.9375 -1.015625q0.609375 -0.359375 1.40625 -0.359375q1.140625 0 1.859375 0.703125q0.71875 0.6875 0.8125 1.890625l0 0.390625q0 1.28125 -0.71875 2.078125q-0.71875 0.78125 -1.9375 0.78125q-1.21875 0 -1.953125 -0.78125q-0.71875 -0.78125 -0.71875 -2.125l0 -0.0625zm1.5 0.109375q0 0.796875 0.296875 1.21875q0.3125 0.421875 0.875 0.421875q0.546875 0 0.84375 -0.421875q0.3125 -0.421875 0.3125 -1.328125q0 -0.796875 -0.3125 -1.21875q-0.296875 -0.4375 -0.859375 -0.4375q-0.546875 0 -0.859375 0.4375q-0.296875 0.421875 -0.296875 1.328125zm5.165985 2.75l0 -4.53125l-0.828125 0l0 -1.09375l0.828125 0l0 -0.484375q0 -0.953125 0.546875 -1.46875q0.546875 -0.515625 1.515625 -0.515625q0.3125 0 0.765625 0.09375l-0.015625 1.171875q-0.1875 -0.046875 -0.453125 -0.046875q-0.84375 0 -0.84375 0.796875l0 0.453125l1.109375 0l0 1.09375l-1.109375 0l0 4.53125l-1.515625 0zm5.2098083 -7.015625l0 1.390625l0.96875 0l0 1.09375l-0.96875 0l0 2.8125q0 0.3125 0.125 0.453125q0.125 0.125 0.453125 0.125q0.25 0 0.4375 -0.03125l0 1.140625q-0.4375 0.140625 -0.90625 0.140625q-1.578125 0 -1.609375 -1.609375l0 -3.03125l-0.828125 0l0 -1.09375l0.828125 0l0 -1.390625l1.5 0zm6.694397 4.96875l0.75 -3.578125l1.453125 0l-1.4375 5.625l-1.265625 0l-1.0625 -3.546875l-1.078125 3.546875l-1.25 0l-1.4375 -5.625l1.453125 0l0.734375 3.578125l1.03125 -3.578125l1.09375 0l1.015625 3.578125zm6.205887 2.046875q-0.109375 -0.203125 -0.15625 -0.5q-0.546875 0.609375 -1.421875 0.609375q-0.828125 0 -1.375 -0.484375q-0.53125 -0.484375 -0.53125 -1.203125q0 -0.90625 0.65625 -1.375q0.671875 -0.484375 1.921875 -0.484375l0.6875 0l0 -0.328125q0 -0.390625 -0.203125 -0.625q-0.203125 -0.234375 -0.625 -0.234375q-0.375 0 -0.59375 0.1875q-0.21875 0.1875 -0.21875 0.5l-1.5 0q0 -0.484375 0.296875 -0.90625q0.296875 -0.421875 0.84375 -0.65625q0.5625 -0.234375 1.25 -0.234375q1.03125 0 1.640625 0.53125q0.625 0.515625 0.625 1.46875l0 2.4375q0 0.796875 0.21875 1.203125l0 0.09375l-1.515625 0zm-1.25 -1.046875q0.328125 0 0.609375 -0.140625q0.28125 -0.15625 0.421875 -0.40625l0 -0.96875l-0.5625 0q-1.125 0 -1.203125 0.78125l0 0.09375q0 0.28125 0.1875 0.46875q0.203125 0.171875 0.546875 0.171875zm6.8537903 -3.171875q-0.296875 -0.046875 -0.53125 -0.046875q-0.859375 0 -1.125 0.578125l0 3.6875l-1.5 0l0 -5.625l1.421875 0l0.046875 0.671875q0.453125 -0.78125 1.25 -0.78125q0.25 0 0.46875 0.0625l-0.03125 1.453125zm3.2253723 4.328125q-1.234375 0 -2.015625 -0.765625q-0.78125 -0.765625 -0.78125 -2.015625l0 -0.15625q0 -0.84375 0.328125 -1.515625q0.328125 -0.671875 0.921875 -1.03125q0.609375 -0.359375 1.375 -0.359375q1.15625 0 1.8125 0.734375q0.671875 0.71875 0.671875 2.0625l0 0.609375l-3.578125 0q0.0625 0.546875 0.421875 0.890625q0.375 0.328125 0.9375 0.328125q0.875 0 1.359375 -0.625l0.734375 0.828125q-0.328125 0.46875 -0.90625 0.75q-0.578125 0.265625 -1.28125 0.265625zm-0.171875 -4.625q-0.453125 0 -0.734375 0.3125q-0.265625 0.296875 -0.34375 0.859375l2.078125 0l0 -0.125q0 -0.5 -0.265625 -0.765625q-0.265625 -0.28125 -0.734375 -0.28125zm10.6480255 1.234375l-3.0 0l0 2.03125l3.515625 0l0 1.25l-5.078125 0l0 -7.578125l5.078125 0l0 1.265625l-3.515625 0l0 1.8125l3.0 0l0 1.21875zm2.7285156 -2.34375l0.046875 0.640625q0.59375 -0.75 1.609375 -0.75q0.890625 0 1.328125 0.53125q0.4375 0.515625 0.453125 1.5625l0 3.640625l-1.5 0l0 -3.59375q0 -0.484375 -0.21875 -0.703125q-0.203125 -0.21875 -0.6875 -0.21875q-0.625 0 -0.953125 0.546875l0 3.96875l-1.5 0l0 -5.625l1.421875 0zm4.3587494 2.765625q0 -1.296875 0.609375 -2.078125q0.625 -0.796875 1.671875 -0.796875q0.921875 0 1.4375 0.640625l0.0625 -0.53125l1.359375 0l0 5.4375q0 0.734375 -0.34375 1.28125q-0.328125 0.546875 -0.9375 0.828125q-0.609375 0.296875 -1.421875 0.296875q-0.609375 0 -1.203125 -0.25q-0.59375 -0.25 -0.890625 -0.640625l0.671875 -0.90625q0.5625 0.625 1.359375 0.625q0.59375 0 0.921875 -0.328125q0.34375 -0.3125 0.34375 -0.90625l0 -0.296875q-0.53125 0.59375 -1.375 0.59375q-1.015625 0 -1.640625 -0.796875q-0.625 -0.796875 -0.625 -2.109375l0 -0.0625zm1.5 0.109375q0 0.765625 0.3125 1.203125q0.3125 0.4375 0.84375 0.4375q0.6875 0 0.984375 -0.515625l0 -2.375q-0.3125 -0.515625 -0.984375 -0.515625q-0.53125 0 -0.84375 0.453125q-0.3125 0.4375 -0.3125 1.3125zm6.395096 2.75l-1.515625 0l0 -5.625l1.515625 0l0 5.625zm-1.609375 -7.09375q0 -0.328125 0.21875 -0.546875q0.234375 -0.21875 0.625 -0.21875q0.390625 0 0.609375 0.21875q0.234375 0.21875 0.234375 0.546875q0 0.34375 -0.234375 0.5625q-0.21875 0.21875 -0.609375 0.21875q-0.375 0 -0.609375 -0.21875q-0.234375 -0.21875 -0.234375 -0.5625zm4.231613 1.46875l0.046875 0.640625q0.59375 -0.75 1.609375 -0.75q0.890625 0 1.328125 0.53125q0.4375 0.515625 0.453125 1.5625l0 3.640625l-1.5 0l0 -3.59375q0 -0.484375 -0.21875 -0.703125q-0.203125 -0.21875 -0.6875 -0.21875q-0.625 0 -0.953125 0.546875l0 3.96875l-1.5 0l0 -5.625l1.421875 0zm7.1712494 5.734375q-1.234375 0 -2.015625 -0.765625q-0.78125 -0.765625 -0.78125 -2.015625l0 -0.15625q0 -0.84375 0.328125 -1.515625q0.328125 -0.671875 0.921875 -1.03125q0.609375 -0.359375 1.375 -0.359375q1.15625 0 1.8125 0.734375q0.671875 0.71875 0.671875 2.0625l0 0.609375l-3.578125 0q0.0625 0.546875 0.421875 0.890625q0.375 0.328125 0.9375 0.328125q0.875 0 1.359375 -0.625l0.734375 0.828125q-0.328125 0.46875 -0.90625 0.75q-0.578125 0.265625 -1.28125 0.265625zm-0.171875 -4.625q-0.453125 0 -0.734375 0.3125q-0.265625 0.296875 -0.34375 0.859375l2.078125 0l0 -0.125q0 -0.5 -0.265625 -0.765625q-0.265625 -0.28125 -0.734375 -0.28125zm5.9318695 4.625q-1.234375 0 -2.015625 -0.765625q-0.78125 -0.765625 -0.78125 -2.015625l0 -0.15625q0 -0.84375 0.328125 -1.515625q0.328125 -0.671875 0.921875 -1.03125q0.609375 -0.359375 1.375 -0.359375q1.15625 0 1.8125 0.734375q0.671875 0.71875 0.671875 2.0625l0 0.609375l-3.578125 0q0.0625 0.546875 0.421875 0.890625q0.375 0.328125 0.9375 0.328125q0.875 0 1.359375 -0.625l0.734375 0.828125q-0.328125 0.46875 -0.90625 0.75q-0.578125 0.265625 -1.28125 0.265625zm-0.171875 -4.625q-0.453125 0 -0.734375 0.3125q-0.265625 0.296875 -0.34375 0.859375l2.078125 0l0 -0.125q0 -0.5 -0.265625 -0.765625q-0.265625 -0.28125 -0.734375 -0.28125zm6.4943695 0.296875q-0.296875 -0.046875 -0.53125 -0.046875q-0.859375 0 -1.125 0.578125l0 3.6875l-1.5 0l0 -5.625l1.421875 0l0.046875 0.671875q0.453125 -0.78125 1.25 -0.78125q0.25 0 0.46875 0.0625l-0.03125 1.453125zm5.1498566 4.21875l-1.5625 0l0 -7.578125l1.5625 0l0 7.578125zm2.7313385 -5.625l0.046875 0.640625q0.59375 -0.75 1.609375 -0.75q0.890625 0 1.328125 0.53125q0.4375 0.515625 0.453125 1.5625l0 3.640625l-1.5 0l0 -3.59375q0 -0.484375 -0.21875 -0.703125q-0.203125 -0.21875 -0.6875 -0.21875q-0.625 0 -0.953125 0.546875l0 3.96875l-1.5 0l0 -5.625l1.421875 0zm6.3743744 -1.390625l0 1.390625l0.96875 0l0 1.09375l-0.96875 0l0 2.8125q0 0.3125 0.125 0.453125q0.125 0.125 0.453125 0.125q0.25 0 0.4375 -0.03125l0 1.140625q-0.4375 0.140625 -0.90625 0.140625q-1.578125 0 -1.609375 -1.609375l0 -3.03125l-0.828125 0l0 -1.09375l0.828125 0l0 -1.390625l1.5 0zm4.397522 7.125q-1.234375 0 -2.015625 -0.765625q-0.78125 -0.765625 -0.78125 -2.015625l0 -0.15625q0 -0.84375 0.328125 -1.515625q0.328125 -0.671875 0.921875 -1.03125q0.609375 -0.359375 1.375 -0.359375q1.15625 0 1.8125 0.734375q0.671875 0.71875 0.671875 2.0625l0 0.609375l-3.578125 0q0.0625 0.546875 0.421875 0.890625q0.375 0.328125 0.9375 0.328125q0.875 0 1.359375 -0.625l0.734375 0.828125q-0.328125 0.46875 -0.90625 0.75q-0.578125 0.265625 -1.28125 0.265625zm-0.171875 -4.625q-0.453125 0 -0.734375 0.3125q-0.265625 0.296875 -0.34375 0.859375l2.078125 0l0 -0.125q0 -0.5 -0.265625 -0.765625q-0.265625 -0.28125 -0.734375 -0.28125zm6.4943695 0.296875q-0.296875 -0.046875 -0.53125 -0.046875q-0.859375 0 -1.125 0.578125l0 3.6875l-1.5 0l0 -5.625l1.421875 0l0.046875 0.671875q0.453125 -0.78125 1.25 -0.78125q0.25 0 0.46875 0.0625l-0.03125 1.453125zm2.1212006 -1.40625l0.046875 0.640625q0.59375 -0.75 1.6093826 -0.75q0.890625 0 1.328125 0.53125q0.4375 0.515625 0.453125 1.5625l0 3.640625l-1.5 0l0 -3.59375q0 -0.484375 -0.21875 -0.703125q-0.203125 -0.21875 -0.6875 -0.21875q-0.6250076 0 -0.9531326 0.546875l0 3.96875l-1.5 0l0 -5.625l1.421875 0z" fill-rule="nonzero"/><path fill="#616161" d="m16.185982 24.661873l1.015625 0l0 5.359375q0 1.09375 -0.65625 1.71875q-0.65624905 0.609375 -1.734374 0.609375q-1.140625 0 -1.765625 -0.578125q-0.625 -0.578125 -0.625 -1.625l1.0 0q0 0.65625 0.34375 1.015625q0.359375 0.359375 1.046875 0.359375q0.609375 0 0.984375 -0.390625q0.39062405 -0.390625 0.39062405 -1.09375l0 -5.375zm6.035919 7.578125q-0.078125 -0.171875 -0.140625 -0.59375q-0.671875 0.703125 -1.59375 0.703125q-0.828125 0 -1.375 -0.46875q-0.53125 -0.484375 -0.53125 -1.203125q0 -0.875 0.671875 -1.359375q0.671875 -0.484375 1.875 -0.484375l0.9375 0l0 -0.453125q0 -0.5 -0.296875 -0.796875q-0.296875 -0.296875 -0.890625 -0.296875q-0.515625 0 -0.859375 0.265625q-0.34375 0.25 -0.34375 0.625l-0.96875 0q0 -0.421875 0.296875 -0.8125q0.296875 -0.40625 0.8125 -0.625q0.515625 -0.234375 1.125 -0.234375q0.96875 0 1.515625 0.484375q0.5625 0.484375 0.578125 1.34375l0 2.59375q0 0.765625 0.203125 1.234375l0 0.078125l-1.015625 0zm-1.59375 -0.734375q0.453125 0 0.859375 -0.234375q0.40625 -0.234375 0.578125 -0.609375l0 -1.15625l-0.75 0q-1.765625 0 -1.765625 1.03125q0 0.453125 0.296875 0.71875q0.3125 0.25 0.78125 0.25zm4.827667 -4.890625l0.03125 0.703125q0.640625 -0.8125 1.6875 -0.8125q1.78125 0 1.796875 2.015625l0 3.71875l-0.96875 0l0 -3.71875q0 -0.609375 -0.28125 -0.90625q-0.265625 -0.296875 -0.84375 -0.296875q-0.46875 0 -0.828125 0.25q-0.34375 0.25 -0.546875 0.65625l0 4.015625l-0.953125 0l0 -5.625l0.90625 0zm8.442169 5.0625q-0.5625 0.671875 -1.640625 0.671875q-0.90625 0 -1.375 -0.515625q-0.46875 -0.53125 -0.484375 -1.5625l0 -3.65625l0.96875 0l0 3.625q0 1.28125 1.03125 1.28125q1.109375 0 1.46875 -0.8125l0 -4.09375l0.96875 0l0 5.625l-0.921875 0l-0.015625 -0.5625zm5.874466 0.5625q-0.078125 -0.171875 -0.140625 -0.59375q-0.671875 0.703125 -1.59375 0.703125q-0.828125 0 -1.375 -0.46875q-0.53125 -0.484375 -0.53125 -1.203125q0 -0.875 0.671875 -1.359375q0.671875 -0.484375 1.875 -0.484375l0.9375 0l0 -0.453125q0 -0.5 -0.296875 -0.796875q-0.296875 -0.296875 -0.890625 -0.296875q-0.515625 0 -0.859375 0.265625q-0.34375 0.25 -0.34375 0.625l-0.96875 0q0 -0.421875 0.296875 -0.8125q0.296875 -0.40625 0.8125 -0.625q0.515625 -0.234375 1.125 -0.234375q0.96875 0 1.515625 0.484375q0.5625 0.484375 0.578125 1.34375l0 2.59375q0 0.765625 0.203125 1.234375l0 0.078125l-1.015625 0zm-1.59375 -0.734375q0.453125 0 0.859375 -0.234375q0.40625 -0.234375 0.578125 -0.609375l0 -1.15625l-0.75 0q-1.765625 0 -1.765625 1.03125q0 0.453125 0.296875 0.71875q0.3125 0.25 0.78125 0.25zm6.640167 -4.03125q-0.21875 -0.03125 -0.484375 -0.03125q-0.9375 0 -1.28125 0.796875l0 4.0l-0.953125 0l0 -5.625l0.9375 0l0.015625 0.640625q0.46875 -0.75 1.328125 -0.75q0.28125 0 0.4375 0.078125l0 0.890625zm2.8246002 3.359375l1.296875 -4.21875l1.03125 0l-2.25 6.5q-0.53125 1.40625 -1.671875 1.40625l-0.1875 -0.015625l-0.359375 -0.078125l0 -0.78125l0.265625 0.03125q0.484375 0 0.75 -0.203125q0.28125 -0.203125 0.453125 -0.71875l0.21875 -0.578125l-2.015625 -5.5625l1.0625 0l1.40625 4.21875zm10.695618 1.40625l-4.96875 0l0 -0.6875l2.625 -2.921875q0.578125 -0.65625 0.796875 -1.0625q0.234375 -0.421875 0.234375 -0.859375q0 -0.59375 -0.359375 -0.96875q-0.359375 -0.390625 -0.96875 -0.390625q-0.703125 0 -1.109375 0.40625q-0.390625 0.40625 -0.390625 1.140625l-0.96875 0q0 -1.046875 0.671875 -1.6875q0.671875 -0.65625 1.796875 -0.65625q1.0625 0 1.671875 0.5625q0.625 0.546875 0.625 1.46875q0 1.125 -1.4375 2.671875l-2.015625 2.203125l3.796875 0l0 0.78125zm5.764984 -3.234375q0 1.6875 -0.578125 2.515625q-0.578125 0.828125 -1.796875 0.828125q-1.21875 0 -1.796875 -0.796875q-0.578125 -0.8125 -0.609375 -2.40625l0 -1.296875q0 -1.671875 0.578125 -2.484375q0.578125 -0.8125 1.8125 -0.8125q1.21875 0 1.796875 0.796875q0.578125 0.78125 0.59375 2.40625l0 1.25zm-0.953125 -1.3125q0 -1.21875 -0.34375 -1.78125q-0.34375 -0.5625 -1.09375 -0.5625q-0.734375 0 -1.078125 0.5625q-0.328125 0.546875 -0.34375 1.703125l0 1.546875q0 1.21875 0.359375 1.8125q0.359375 0.578125 1.078125 0.578125q0.703125 0 1.046875 -0.546875q0.359375 -0.546875 0.375 -1.734375l0 -1.578125zm5.358734 4.546875l-0.96875 0l0 -6.421875l-1.9375 0.71875l0 -0.875l2.75 -1.03125l0.15625 0l0 7.609375zm6.874359 -2.546875l1.0625 0l0 0.78125l-1.0625 0l0 1.765625l-0.96875 0l0 -1.765625l-3.4375 0l0 -0.5625l3.390625 -5.25l1.015625 0l0 5.03125zm-3.3125 0l2.34375 0l0 -3.71875l-0.109375 0.21875l-2.234375 3.5z" fill-rule="nonzero"/><path fill="#000000" fill-opacity="0.0" d="m211.021 53.08005l159.52756 0l0 42.204723l-159.52756 0z" fill-rule="evenodd"/><path fill="#616161" d="m224.63037 70.33568q0 -0.453125 -0.3125 -0.6875q-0.3125 -0.234375 -1.125 -0.484375q-0.8125 -0.265625 -1.28125 -0.53125q-1.296875 -0.6875 -1.296875 -1.875q0 -0.609375 0.34375 -1.09375q0.34375 -0.484375 0.984375 -0.75q0.65625 -0.28125 1.46875 -0.28125q0.8125 0 1.4375 0.296875q0.640625 0.296875 0.984375 0.84375q0.359375 0.53125 0.359375 1.203125l-1.5625 0q0 -0.515625 -0.328125 -0.796875q-0.328125 -0.296875 -0.921875 -0.296875q-0.578125 0 -0.890625 0.25q-0.3125 0.234375 -0.3125 0.625q0 0.375 0.359375 0.625q0.375 0.25 1.109375 0.46875q1.328125 0.40625 1.9375 1.0q0.609375 0.59375 0.609375 1.46875q0 0.984375 -0.75 1.546875q-0.734375 0.5625 -2.0 0.5625q-0.875 0 -1.59375 -0.3125q-0.71875 -0.328125 -1.09375 -0.890625q-0.375 -0.5625 -0.375 -1.296875l1.5625 0q0 1.265625 1.5 1.265625q0.5625 0 0.875 -0.21875q0.3125 -0.234375 0.3125 -0.640625zm2.285263 -0.875q0 -0.84375 0.3125 -1.5q0.328125 -0.65625 0.9375 -1.015625q0.609375 -0.359375 1.40625 -0.359375q1.140625 0 1.859375 0.703125q0.71875 0.6875 0.8125 1.890625l0 0.390625q0 1.28125 -0.71875 2.078125q-0.71875 0.78125 -1.9375 0.78125q-1.21875 0 -1.953125 -0.78125q-0.71875 -0.78125 -0.71875 -2.125l0 -0.0625zm1.5 0.109375q0 0.796875 0.296875 1.21875q0.3125 0.421875 0.875 0.421875q0.546875 0 0.84375 -0.421875q0.3125 -0.421875 0.3125 -1.328125q0 -0.796875 -0.3125 -1.21875q-0.296875 -0.4375 -0.859375 -0.4375q-0.546875 0 -0.859375 0.4375q-0.296875 0.421875 -0.296875 1.328125zm5.165985 2.75l0 -4.53125l-0.828125 0l0 -1.09375l0.828125 0l0 -0.484375q0 -0.953125 0.546875 -1.46875q0.546875 -0.515625 1.515625 -0.515625q0.3125 0 0.765625 0.09375l-0.015625 1.171875q-0.1875 -0.046875 -0.453125 -0.046875q-0.84375 0 -0.84375 0.796875l0 0.453125l1.109375 0l0 1.09375l-1.109375 0l0 4.53125l-1.515625 0zm5.2098083 -7.015625l0 1.390625l0.96875 0l0 1.09375l-0.96875 0l0 2.8125q0 0.3125 0.125 0.453125q0.125 0.125 0.453125 0.125q0.25 0 0.4375 -0.03125l0 1.140625q-0.4375 0.140625 -0.90625 0.140625q-1.578125 0 -1.609375 -1.609375l0 -3.03125l-0.828125 0l0 -1.09375l0.828125 0l0 -1.390625l1.5 0zm6.694397 4.96875l0.75 -3.578125l1.453125 0l-1.4375 5.625l-1.265625 0l-1.0625 -3.546875l-1.078125 3.546875l-1.25 0l-1.4375 -5.625l1.453125 0l0.734375 3.578125l1.03125 -3.578125l1.09375 0l1.015625 3.578125zm6.205887 2.046875q-0.109375 -0.203125 -0.15625 -0.5q-0.546875 0.609375 -1.421875 0.609375q-0.828125 0 -1.375 -0.484375q-0.53125 -0.484375 -0.53125 -1.203125q0 -0.90625 0.65625 -1.375q0.671875 -0.484375 1.921875 -0.484375l0.6875 0l0 -0.328125q0 -0.390625 -0.203125 -0.625q-0.203125 -0.234375 -0.625 -0.234375q-0.375 0 -0.59375 0.1875q-0.21875 0.1875 -0.21875 0.5l-1.5 0q0 -0.484375 0.296875 -0.90625q0.296875 -0.421875 0.84375 -0.65625q0.5625 -0.234375 1.25 -0.234375q1.03125 0 1.640625 0.53125q0.625 0.515625 0.625 1.46875l0 2.4375q0 0.796875 0.21875 1.203125l0 0.09375l-1.515625 0zm-1.25 -1.046875q0.328125 0 0.609375 -0.140625q0.28125 -0.15625 0.421875 -0.40625l0 -0.96875l-0.5625 0q-1.125 0 -1.203125 0.78125l0 0.09375q0 0.28125 0.1875 0.46875q0.203125 0.171875 0.546875 0.171875zm6.8537903 -3.171875q-0.296875 -0.046875 -0.53125 -0.046875q-0.859375 0 -1.125 0.578125l0 3.6875l-1.5 0l0 -5.625l1.421875 0l0.046875 0.671875q0.453125 -0.78125 1.25 -0.78125q0.25 0 0.46875 0.0625l-0.03125 1.453125zm3.2253723 4.328125q-1.234375 0 -2.015625 -0.765625q-0.78125 -0.765625 -0.78125 -2.015625l0 -0.15625q0 -0.84375 0.328125 -1.515625q0.328125 -0.671875 0.921875 -1.03125q0.609375 -0.359375 1.375 -0.359375q1.15625 0 1.8125 0.734375q0.671875 0.71875 0.671875 2.0625l0 0.609375l-3.578125 0q0.0625 0.546875 0.421875 0.890625q0.375 0.328125 0.9375 0.328125q0.875 0 1.359375 -0.625l0.734375 0.828125q-0.328125 0.46875 -0.90625 0.75q-0.578125 0.265625 -1.28125 0.265625zm-0.171875 -4.625q-0.453125 0 -0.734375 0.3125q-0.265625 0.296875 -0.34375 0.859375l2.078125 0l0 -0.125q0 -0.5 -0.265625 -0.765625q-0.265625 -0.28125 -0.734375 -0.28125zm10.648041 1.234375l-3.0 0l0 2.03125l3.515625 0l0 1.25l-5.078125 0l0 -7.578125l5.078125 0l0 1.265625l-3.515625 0l0 1.8125l3.0 0l0 1.21875zm2.7285156 -2.34375l0.046875 0.640625q0.59375 -0.75 1.609375 -0.75q0.890625 0 1.328125 0.53125q0.4375 0.515625 0.453125 1.5625l0 3.640625l-1.5 0l0 -3.59375q0 -0.484375 -0.21875 -0.703125q-0.203125 -0.21875 -0.6875 -0.21875q-0.625 0 -0.953125 0.546875l0 3.96875l-1.5 0l0 -5.625l1.421875 0zm4.358734 2.765625q0 -1.296875 0.609375 -2.078125q0.625 -0.796875 1.671875 -0.796875q0.921875 0 1.4375 0.640625l0.0625 -0.53125l1.359375 0l0 5.4375q0 0.734375 -0.34375 1.28125q-0.328125 0.546875 -0.9375 0.828125q-0.609375 0.296875 -1.421875 0.296875q-0.609375 0 -1.203125 -0.25q-0.59375 -0.25 -0.890625 -0.640625l0.671875 -0.90625q0.5625 0.625 1.359375 0.625q0.59375 0 0.921875 -0.328125q0.34375 -0.3125 0.34375 -0.90625l0 -0.296875q-0.53125 0.59375 -1.375 0.59375q-1.015625 0 -1.640625 -0.796875q-0.625 -0.796875 -0.625 -2.109375l0 -0.0625zm1.5 0.109375q0 0.765625 0.3125 1.203125q0.3125 0.4375 0.84375 0.4375q0.6875 0 0.984375 -0.515625l0 -2.375q-0.3125 -0.515625 -0.984375 -0.515625q-0.53125 0 -0.84375 0.453125q-0.3125 0.4375 -0.3125 1.3125zm6.395111 2.75l-1.515625 0l0 -5.625l1.515625 0l0 5.625zm-1.609375 -7.09375q0 -0.328125 0.21875 -0.546875q0.234375 -0.21875 0.625 -0.21875q0.390625 0 0.609375 0.21875q0.234375 0.21875 0.234375 0.546875q0 0.34375 -0.234375 0.5625q-0.21875 0.21875 -0.609375 0.21875q-0.375 0 -0.609375 -0.21875q-0.234375 -0.21875 -0.234375 -0.5625zm4.231598 1.46875l0.046875 0.640625q0.59375 -0.75 1.609375 -0.75q0.890625 0 1.328125 0.53125q0.4375 0.515625 0.453125 1.5625l0 3.640625l-1.5 0l0 -3.59375q0 -0.484375 -0.21875 -0.703125q-0.203125 -0.21875 -0.6875 -0.21875q-0.625 0 -0.953125 0.546875l0 3.96875l-1.5 0l0 -5.625l1.421875 0zm7.1712646 5.734375q-1.234375 0 -2.015625 -0.765625q-0.78125 -0.765625 -0.78125 -2.015625l0 -0.15625q0 -0.84375 0.328125 -1.515625q0.328125 -0.671875 0.921875 -1.03125q0.609375 -0.359375 1.375 -0.359375q1.15625 0 1.8125 0.734375q0.671875 0.71875 0.671875 2.0625l0 0.609375l-3.578125 0q0.0625 0.546875 0.421875 0.890625q0.375 0.328125 0.9375 0.328125q0.875 0 1.359375 -0.625l0.734375 0.828125q-0.328125 0.46875 -0.90625 0.75q-0.578125 0.265625 -1.28125 0.265625zm-0.171875 -4.625q-0.453125 0 -0.734375 0.3125q-0.265625 0.296875 -0.34375 0.859375l2.078125 0l0 -0.125q0 -0.5 -0.265625 -0.765625q-0.265625 -0.28125 -0.734375 -0.28125zm5.9318542 4.625q-1.234375 0 -2.015625 -0.765625q-0.78125 -0.765625 -0.78125 -2.015625l0 -0.15625q0 -0.84375 0.328125 -1.515625q0.328125 -0.671875 0.921875 -1.03125q0.609375 -0.359375 1.375 -0.359375q1.15625 0 1.8125 0.734375q0.671875 0.71875 0.671875 2.0625l0 0.609375l-3.578125 0q0.0625 0.546875 0.421875 0.890625q0.375 0.328125 0.9375 0.328125q0.875 0 1.359375 -0.625l0.734375 0.828125q-0.328125 0.46875 -0.90625 0.75q-0.578125 0.265625 -1.28125 0.265625zm-0.171875 -4.625q-0.453125 0 -0.734375 0.3125q-0.265625 0.296875 -0.34375 0.859375l2.078125 0l0 -0.125q0 -0.5 -0.265625 -0.765625q-0.265625 -0.28125 -0.734375 -0.28125zm6.494385 0.296875q-0.296875 -0.046875 -0.53125 -0.046875q-0.859375 0 -1.125 0.578125l0 3.6875l-1.5 0l0 -5.625l1.421875 0l0.046875 0.671875q0.453125 -0.78125 1.25 -0.78125q0.25 0 0.46875 0.0625l-0.03125 1.453125z" fill-rule="nonzero"/><path fill="#616161" d="m222.19287 77.74193l2.46875 6.1875l2.484375 -6.1875l1.296875 0l0 7.578125l-1.0 0l0 -2.953125l0.09375 -3.1875l-2.484375 6.140625l-0.765625 0l-2.484375 -6.125l0.09375 3.171875l0 2.953125l-1.0 0l0 -7.578125l1.296875 0zm11.334656 7.578125q-0.078125 -0.171875 -0.140625 -0.59375q-0.671875 0.703125 -1.59375 0.703125q-0.828125 0 -1.375 -0.46875q-0.53125 -0.484375 -0.53125 -1.203125q0 -0.875 0.671875 -1.359375q0.671875 -0.484375 1.875 -0.484375l0.9375 0l0 -0.453125q0 -0.5 -0.296875 -0.796875q-0.296875 -0.296875 -0.890625 -0.296875q-0.515625 0 -0.859375 0.265625q-0.34375 0.25 -0.34375 0.625l-0.96875 0q0 -0.421875 0.296875 -0.8125q0.296875 -0.40625 0.8125 -0.625q0.515625 -0.234375 1.125 -0.234375q0.96875 0 1.515625 0.484375q0.5625 0.484375 0.578125 1.34375l0 2.59375q0 0.765625 0.203125 1.234375l0 0.078125l-1.015625 0zm-1.59375 -0.734375q0.453125 0 0.859375 -0.234375q0.40625 -0.234375 0.578125 -0.609375l0 -1.15625l-0.75 0q-1.765625 0 -1.765625 1.03125q0 0.453125 0.296875 0.71875q0.3125 0.25 0.78125 0.25zm5.687042 -0.671875l1.296875 -4.21875l1.03125 0l-2.25 6.5q-0.53125 1.40625 -1.671875 1.40625l-0.1875 -0.015625l-0.359375 -0.078125l0 -0.78125l0.265625 0.03125q0.484375 0 0.75 -0.203125q0.28125 -0.203125 0.453125 -0.71875l0.21875 -0.578125l-2.015625 -5.5625l1.0625 0l1.40625 4.21875zm10.695618 1.40625l-4.96875 0l0 -0.6875l2.625 -2.921875q0.578125 -0.65625 0.796875 -1.0625q0.234375 -0.421875 0.234375 -0.859375q0 -0.59375 -0.359375 -0.96875q-0.359375 -0.390625 -0.96875 -0.390625q-0.703125 0 -1.109375 0.40625q-0.390625 0.40625 -0.390625 1.140625l-0.96875 0q0 -1.046875 0.671875 -1.6875q0.671875 -0.65625 1.796875 -0.65625q1.0625 0 1.671875 0.5625q0.625 0.546875 0.625 1.46875q0 1.125 -1.4375 2.671875l-2.015625 2.203125l3.796875 0l0 0.78125zm5.764984 -3.234375q0 1.6875 -0.578125 2.515625q-0.578125 0.828125 -1.796875 0.828125q-1.21875 0 -1.796875 -0.796875q-0.578125 -0.8125 -0.609375 -2.40625l0 -1.296875q0 -1.671875 0.578125 -2.484375q0.578125 -0.8125 1.8125 -0.8125q1.21875 0 1.796875 0.796875q0.578125 0.78125 0.59375 2.40625l0 1.25zm-0.953125 -1.3125q0 -1.21875 -0.34375 -1.78125q-0.34375 -0.5625 -1.09375 -0.5625q-0.734375 0 -1.078125 0.5625q-0.328125 0.546875 -0.34375 1.703125l0 1.546875q0 1.21875 0.359375 1.8125q0.359375 0.578125 1.078125 0.578125q0.703125 0 1.046875 -0.546875q0.359375 -0.546875 0.375 -1.734375l0 -1.578125zm5.358734 4.546875l-0.96875 0l0 -6.421875l-1.9375 0.71875l0 -0.875l2.75 -1.03125l0.15625 0l0 7.609375zm3.2649841 -3.796875l0.375 -3.78125l3.890625 0l0 0.890625l-3.0625 0l-0.234375 2.0625q0.5625 -0.328125 1.265625 -0.328125q1.03125 0 1.640625 0.6875q0.609375 0.6875 0.609375 1.84375q0 1.171875 -0.640625 1.859375q-0.625 0.671875 -1.765625 0.671875q-1.0 0 -1.640625 -0.5625q-0.625 -0.5625 -0.71875 -1.546875l0.921875 0q0.078125 0.65625 0.453125 0.984375q0.375 0.328125 0.984375 0.328125q0.671875 0 1.046875 -0.453125q0.390625 -0.453125 0.390625 -1.265625q0 -0.75 -0.421875 -1.203125q-0.40625 -0.46875 -1.09375 -0.46875q-0.625 0 -0.984375 0.265625l-0.25 0.21875l-0.765625 -0.203125z" fill-rule="nonzero"/><path fill="#000000" fill-opacity="0.0" d="m416.62204 -0.001312336l159.52756 0l0 42.204723l-159.52756 0z" fill-rule="evenodd"/><path fill="#616161" d="m431.99704 12.9261875l-2.3125 0l0 6.3125l-1.5625 0l0 -6.3125l-2.296875 0l0 -1.265625l6.171875 0l0 1.265625zm2.9258423 6.421875q-1.234375 0 -2.015625 -0.765625q-0.78125 -0.765625 -0.78125 -2.015625l0 -0.15625q0 -0.84375 0.328125 -1.515625q0.328125 -0.671875 0.921875 -1.03125q0.609375 -0.359375 1.375 -0.359375q1.15625 0 1.8125 0.734375q0.671875 0.71875 0.671875 2.0625l0 0.609375l-3.578125 0q0.0625 0.546875 0.421875 0.890625q0.375 0.328125 0.9375 0.328125q0.875 0 1.359375 -0.625l0.734375 0.828125q-0.328125 0.46875 -0.90625 0.75q-0.578125 0.265625 -1.28125 0.265625zm-0.171875 -4.625q-0.453125 0 -0.734375 0.3125q-0.265625 0.296875 -0.34375 0.859375l2.078125 0l0 -0.125q0 -0.5 -0.265625 -0.765625q-0.265625 -0.28125 -0.734375 -0.28125zm6.60376 4.515625q-0.109375 -0.203125 -0.15625 -0.5q-0.546875 0.609375 -1.421875 0.609375q-0.828125 0 -1.375 -0.484375q-0.53125 -0.484375 -0.53125 -1.203125q0 -0.90625 0.65625 -1.375q0.671875 -0.484375 1.921875 -0.484375l0.6875 0l0 -0.328125q0 -0.390625 -0.203125 -0.625q-0.203125 -0.234375 -0.625 -0.234375q-0.375 0 -0.59375 0.1875q-0.21875 0.1875 -0.21875 0.5l-1.5 0q0 -0.484375 0.296875 -0.90625q0.296875 -0.421875 0.84375 -0.65625q0.5625 -0.234375 1.25 -0.234375q1.03125 0 1.640625 0.53125q0.625 0.515625 0.625 1.46875l0 2.4375q0 0.796875 0.21875 1.203125l0 0.09375l-1.515625 0zm-1.25 -1.046875q0.328125 0 0.609375 -0.140625q0.28125 -0.15625 0.421875 -0.40625l0 -0.96875l-0.5625 0q-1.125 0 -1.203125 0.78125l0 0.09375q0 0.28125 0.1875 0.46875q0.203125 0.171875 0.546875 0.171875zm5.1037903 -4.578125l0.046875 0.625q0.609375 -0.734375 1.625 -0.734375q1.078125 0 1.484375 0.859375q0.59375 -0.859375 1.703125 -0.859375q0.90625 0 1.34375 0.53125q0.453125 0.53125 0.453125 1.609375l0 3.59375l-1.5 0l0 -3.59375q0 -0.46875 -0.1875 -0.6875q-0.1875 -0.234375 -0.65625 -0.234375q-0.6875 0 -0.9375 0.65625l0 3.859375l-1.5 0l0 -3.578125q0 -0.5 -0.203125 -0.71875q-0.1875 -0.21875 -0.65625 -0.21875q-0.625 0 -0.921875 0.53125l0 3.984375l-1.5 0l0 -5.625l1.40625 0zm12.128998 4.375l3.3125 0l0 1.25l-4.875 0l0 -7.578125l1.5625 0l0 6.328125zm6.7079163 1.359375q-1.234375 0 -2.015625 -0.765625q-0.78125 -0.765625 -0.78125 -2.015625l0 -0.15625q0 -0.84375 0.328125 -1.515625q0.328125 -0.671875 0.921875 -1.03125q0.609375 -0.359375 1.375 -0.359375q1.15625 0 1.8125 0.734375q0.671875 0.71875 0.671875 2.0625l0 0.609375l-3.578125 0q0.0625 0.546875 0.421875 0.890625q0.375 0.328125 0.9375 0.328125q0.875 0 1.359375 -0.625l0.734375 0.828125q-0.328125 0.46875 -0.90625 0.75q-0.578125 0.265625 -1.28125 0.265625zm-0.171875 -4.625q-0.453125 0 -0.734375 0.3125q-0.265625 0.296875 -0.34375 0.859375l2.078125 0l0 -0.125q0 -0.5 -0.265625 -0.765625q-0.265625 -0.28125 -0.734375 -0.28125zm6.6037292 4.515625q-0.109375 -0.203125 -0.15625 -0.5q-0.546875 0.609375 -1.421875 0.609375q-0.828125 0 -1.375 -0.484375q-0.53125 -0.484375 -0.53125 -1.203125q0 -0.90625 0.65625 -1.375q0.671875 -0.484375 1.921875 -0.484375l0.6875 0l0 -0.328125q0 -0.390625 -0.203125 -0.625q-0.203125 -0.234375 -0.625 -0.234375q-0.375 0 -0.59375 0.1875q-0.21875 0.1875 -0.21875 0.5l-1.5 0q0 -0.484375 0.296875 -0.90625q0.296875 -0.421875 0.84375 -0.65625q0.5625 -0.234375 1.25 -0.234375q1.03125 0 1.640625 0.53125q0.625 0.515625 0.625 1.46875l0 2.4375q0 0.796875 0.21875 1.203125l0 0.09375l-1.515625 0zm-1.25 -1.046875q0.328125 0 0.609375 -0.140625q0.28125 -0.15625 0.421875 -0.40625l0 -0.96875l-0.5625 0q-1.125 0 -1.203125 0.78125l0 0.09375q0 0.28125 0.1875 0.46875q0.203125 0.171875 0.546875 0.171875zm3.4631653 -1.8125q0 -1.3125 0.59375 -2.09375q0.59375 -0.78125 1.609375 -0.78125q0.828125 0 1.359375 0.609375l0 -2.875l1.515625 0l0 8.0l-1.359375 0l-0.078125 -0.59375q-0.5625 0.703125 -1.4375 0.703125q-1.0 0 -1.609375 -0.78125q-0.59375 -0.796875 -0.59375 -2.1875zm1.5 0.109375q0 0.796875 0.28125 1.21875q0.28125 0.421875 0.796875 0.421875q0.703125 0 0.984375 -0.59375l0 -2.21875q-0.28125 -0.59375 -0.96875 -0.59375q-1.09375 0 -1.09375 1.765625z" fill-rule="nonzero"/><path fill="#616161" d="m430.68454 30.25431l-3.171875 0l-0.71875 1.984375l-1.03125 0l2.890625 -7.578125l0.875 0l2.90625 7.578125l-1.03125 0l-0.71875 -1.984375zm-2.875 -0.8125l2.578125 0l-1.296875 -3.546875l-1.28125 3.546875zm10.248413 0.046875q0 1.28125 -0.59375 2.078125q-0.578125 0.78125 -1.59375 0.78125q-1.015625 0 -1.609375 -0.65625l0 2.71875l-0.953125 0l0 -7.796875l0.875 0l0.046875 0.625q0.59375 -0.734375 1.625 -0.734375q1.015625 0 1.609375 0.765625q0.59375 0.765625 0.59375 2.125l0 0.09375zm-0.96875 -0.109375q0 -0.953125 -0.40625 -1.5q-0.40625 -0.5625 -1.109375 -0.5625q-0.875 0 -1.3125 0.78125l0 2.6875q0.4375 0.765625 1.328125 0.765625q0.6875 0 1.09375 -0.546875q0.40625 -0.546875 0.40625 -1.625zm4.916046 -1.90625q-0.21875 -0.03125 -0.484375 -0.03125q-0.9375 0 -1.28125 0.796875l0 4.0l-0.953125 0l0 -5.625l0.9375 0l0.015625 0.640625q0.46875 -0.75 1.328125 -0.75q0.28125 0 0.4375 0.078125l0 0.890625zm1.93396 4.765625l-0.96875 0l0 -5.625l0.96875 0l0 5.625zm-1.046875 -7.125q0 -0.234375 0.140625 -0.390625q0.140625 -0.171875 0.421875 -0.171875q0.28125 0 0.421875 0.171875q0.15625 0.15625 0.15625 0.390625q0 0.234375 -0.15625 0.390625q-0.140625 0.15625 -0.421875 0.15625q-0.28125 0 -0.421875 -0.15625q-0.140625 -0.15625 -0.140625 -0.390625zm3.632904 7.125l-0.96875 0l0 -8.0l0.96875 0l0 8.0zm9.03656 0l-4.96875 0l0 -0.6875l2.625 -2.921875q0.578125 -0.65625 0.796875 -1.0625q0.234375 -0.421875 0.234375 -0.859375q0 -0.59375 -0.359375 -0.96875q-0.359375 -0.390625 -0.96875 -0.390625q-0.703125 0 -1.109375 0.40625q-0.390625 0.40625 -0.390625 1.140625l-0.96875 0q0 -1.046875 0.671875 -1.6875q0.671875 -0.65625 1.796875 -0.65625q1.0625 0 1.671875 0.5625q0.625 0.546875 0.625 1.46875q0 1.125 -1.4375 2.671875l-2.015625 2.203125l3.796875 0l0 0.78125zm5.764984 -3.234375q0 1.6875 -0.578125 2.515625q-0.578125 0.828125 -1.796875 0.828125q-1.21875 0 -1.796875 -0.796875q-0.578125 -0.8125 -0.609375 -2.40625l0 -1.296875q0 -1.671875 0.578125 -2.484375q0.578125 -0.8125 1.8125 -0.8125q1.21875 0 1.796875 0.796875q0.578125 0.78125 0.59375 2.40625l0 1.25zm-0.953125 -1.3125q0 -1.21875 -0.34375 -1.78125q-0.34375 -0.5625 -1.09375 -0.5625q-0.734375 0 -1.078125 0.5625q-0.328125 0.546875 -0.34375 1.703125l0 1.546875q0 1.21875 0.359375 1.8125q0.359375 0.578125 1.078125 0.578125q0.703125 0 1.046875 -0.546875q0.359375 -0.546875 0.375 -1.734375l0 -1.578125zm5.358734 4.546875l-0.96875 0l0 -6.421875l-1.9375 0.71875l0 -0.875l2.75 -1.03125l0.15625 0l0 7.609375zm7.702484 -7.03125l-3.125 7.03125l-1.015625 0l3.125 -6.78125l-4.09375 0l0 -0.796875l5.109375 0l0 0.546875z" fill-rule="nonzero"/><path fill="#0944a1" d="m622.21783 42.204918l246.64563 0l0 14.015747l-246.64563 0z" fill-rule="evenodd"/><path fill="#000000" fill-opacity="0.0" d="m622.06934 79.93639l0 -37.73228" fill-rule="evenodd"/><path stroke="#616161" stroke-width="1.0" stroke-linejoin="round" stroke-linecap="butt" d="m622.06934 79.93639l0 -37.73228" fill-rule="evenodd"/><path fill="#616161" d="m626.91974 80.58995l0 0c0 2.6788025 -2.1716309 4.850395 -4.850403 4.850395l0 0c-1.286377 0 -2.5201416 -0.5110245 -3.4297485 -1.4206467c-0.90960693 -0.9096298 -1.4206543 -2.143341 -1.4206543 -3.4297485l0 0c0 -2.6787949 2.1716309 -4.850395 4.850403 -4.850395l0 0c2.678772 0 4.850403 2.1716003 4.850403 4.850395z" fill-rule="evenodd"/><path fill="#000000" fill-opacity="0.0" d="m622.2231 53.08005l159.52759 0l0 42.204723l-159.52759 0z" fill-rule="evenodd"/><path fill="#616161" d="m637.5981 66.00755l-2.3125 0l0 6.3125l-1.5625 0l0 -6.3125l-2.296875 0l0 -1.265625l6.171875 0l0 1.265625zm2.9258423 6.421875q-1.234375 0 -2.015625 -0.765625q-0.78125 -0.765625 -0.78125 -2.015625l0 -0.15625q0 -0.84375 0.328125 -1.515625q0.328125 -0.671875 0.921875 -1.03125q0.609375 -0.359375 1.375 -0.359375q1.15625 0 1.8125 0.734375q0.671875 0.71875 0.671875 2.0625l0 0.609375l-3.578125 0q0.0625 0.546875 0.421875 0.890625q0.375 0.328125 0.9375 0.328125q0.875 0 1.359375 -0.625l0.734375 0.828125q-0.328125 0.46875 -0.90625 0.75q-0.578125 0.265625 -1.28125 0.265625zm-0.171875 -4.625q-0.453125 0 -0.734375 0.3125q-0.265625 0.296875 -0.34375 0.859375l2.078125 0l0 -0.125q0 -0.5 -0.265625 -0.765625q-0.265625 -0.28125 -0.734375 -0.28125zm5.681885 3.40625q0.40625 0 0.671875 -0.21875q0.265625 -0.234375 0.265625 -0.625l1.421875 0q-0.015625 0.578125 -0.328125 1.0625q-0.296875 0.46875 -0.828125 0.734375q-0.53125 0.265625 -1.1875 0.265625q-1.203125 0 -1.90625 -0.765625q-0.6875 -0.78125 -0.6875 -2.125l0 -0.09375q0 -1.3125 0.6875 -2.078125q0.703125 -0.78125 1.90625 -0.78125q1.046875 0 1.6875 0.609375q0.640625 0.59375 0.65625 1.59375l-1.421875 0q0 -0.4375 -0.265625 -0.703125q-0.265625 -0.28125 -0.6875 -0.28125q-0.515625 0 -0.796875 0.390625q-0.265625 0.375 -0.265625 1.234375l0 0.15625q0 0.859375 0.265625 1.25q0.265625 0.375 0.8125 0.375zm4.682068 -3.90625q0.59375 -0.71875 1.5 -0.71875q1.828125 0 1.859375 2.125l0 3.609375l-1.5 0l0 -3.5625q0 -0.484375 -0.21875 -0.71875q-0.203125 -0.234375 -0.6875 -0.234375q-0.65625 0 -0.953125 0.515625l0 4.0l-1.5 0l0 -8.0l1.5 0l0 2.984375zm8.804077 3.765625l3.3125 0l0 1.25l-4.875 0l0 -7.578125l1.5625 0l0 6.328125zm6.7078857 1.359375q-1.234375 0 -2.015625 -0.765625q-0.78125 -0.765625 -0.78125 -2.015625l0 -0.15625q0 -0.84375 0.328125 -1.515625q0.328125 -0.671875 0.921875 -1.03125q0.609375 -0.359375 1.375 -0.359375q1.15625 0 1.8125 0.734375q0.671875 0.71875 0.671875 2.0625l0 0.609375l-3.578125 0q0.0625 0.546875 0.421875 0.890625q0.375 0.328125 0.9375 0.328125q0.875 0 1.359375 -0.625l0.734375 0.828125q-0.328125 0.46875 -0.90625 0.75q-0.578125 0.265625 -1.28125 0.265625zm-0.171875 -4.625q-0.453125 0 -0.734375 0.3125q-0.265625 0.296875 -0.34375 0.859375l2.078125 0l0 -0.125q0 -0.5 -0.265625 -0.765625q-0.265625 -0.28125 -0.734375 -0.28125zm6.60376 4.515625q-0.109375 -0.203125 -0.15625 -0.5q-0.546875 0.609375 -1.421875 0.609375q-0.828125 0 -1.375 -0.484375q-0.53125 -0.484375 -0.53125 -1.203125q0 -0.90625 0.65625 -1.375q0.671875 -0.484375 1.921875 -0.484375l0.6875 0l0 -0.328125q0 -0.390625 -0.203125 -0.625q-0.203125 -0.234375 -0.625 -0.234375q-0.375 0 -0.59375 0.1875q-0.21875 0.1875 -0.21875 0.5l-1.5 0q0 -0.484375 0.296875 -0.90625q0.296875 -0.421875 0.84375 -0.65625q0.5625 -0.234375 1.25 -0.234375q1.03125 0 1.640625 0.53125q0.625 0.515625 0.625 1.46875l0 2.4375q0 0.796875 0.21875 1.203125l0 0.09375l-1.515625 0zm-1.25 -1.046875q0.328125 0 0.609375 -0.140625q0.28125 -0.15625 0.421875 -0.40625l0 -0.96875l-0.5625 0q-1.125 0 -1.203125 0.78125l0 0.09375q0 0.28125 0.1875 0.46875q0.203125 0.171875 0.546875 0.171875zm3.4631348 -1.8125q0 -1.3125 0.59375 -2.09375q0.59375 -0.78125 1.609375 -0.78125q0.828125 0 1.359375 0.609375l0 -2.875l1.515625 0l0 8.0l-1.359375 0l-0.078125 -0.59375q-0.5625 0.703125 -1.4375 0.703125q-1.0 0 -1.609375 -0.78125q-0.59375 -0.796875 -0.59375 -2.1875zm1.5 0.109375q0 0.796875 0.28125 1.21875q0.28125 0.421875 0.796875 0.421875q0.703125 0 0.984375 -0.59375l0 -2.21875q-0.28125 -0.59375 -0.96875 -0.59375q-1.09375 0 -1.09375 1.765625z" fill-rule="nonzero"/><path fill="#616161" d="m635.26996 77.74193l1.015625 0l0 5.359375q0 1.09375 -0.65625 1.71875q-0.65625 0.609375 -1.734375 0.609375q-1.140625 0 -1.765625 -0.578125q-0.625 -0.578125 -0.625 -1.625l1.0 0q0 0.65625 0.34375 1.015625q0.359375 0.359375 1.046875 0.359375q0.609375 0 0.984375 -0.390625q0.390625 -0.390625 0.390625 -1.09375l0 -5.375zm6.0359497 7.015625q-0.5625 0.671875 -1.640625 0.671875q-0.90625 0 -1.375 -0.515625q-0.46875 -0.53125 -0.484375 -1.5625l0 -3.65625l0.96875 0l0 3.625q0 1.28125 1.03125 1.28125q1.109375 0 1.46875 -0.8125l0 -4.09375l0.96875 0l0 5.625l-0.921875 0l-0.015625 -0.5625zm3.4525757 0.5625l-0.96875 0l0 -8.0l0.96875 0l0 8.0zm3.3828735 -1.40625l1.296875 -4.21875l1.03125 0l-2.25 6.5q-0.53125 1.40625 -1.671875 1.40625l-0.1875 -0.015625l-0.359375 -0.078125l0 -0.78125l0.265625 0.03125q0.484375 0 0.75 -0.203125q0.28125 -0.203125 0.453125 -0.71875l0.21875 -0.578125l-2.015625 -5.5625l1.0625 0l1.40625 4.21875zm10.695618 1.40625l-4.96875 0l0 -0.6875l2.625 -2.921875q0.578125 -0.65625 0.796875 -1.0625q0.234375 -0.421875 0.234375 -0.859375q0 -0.59375 -0.359375 -0.96875q-0.359375 -0.390625 -0.96875 -0.390625q-0.703125 0 -1.109375 0.40625q-0.390625 0.40625 -0.390625 1.140625l-0.96875 0q0 -1.046875 0.671875 -1.6875q0.671875 -0.65625 1.796875 -0.65625q1.0625 0 1.671875 0.5625q0.625 0.546875 0.625 1.46875q0 1.125 -1.4375 2.671875l-2.015625 2.203125l3.796875 0l0 0.78125zm5.7650146 -3.234375q0 1.6875 -0.578125 2.515625q-0.578125 0.828125 -1.796875 0.828125q-1.21875 0 -1.796875 -0.796875q-0.578125 -0.8125 -0.609375 -2.40625l0 -1.296875q0 -1.671875 0.578125 -2.484375q0.578125 -0.8125 1.8125 -0.8125q1.21875 0 1.796875 0.796875q0.578125 0.78125 0.59375 2.40625l0 1.25zm-0.953125 -1.3125q0 -1.21875 -0.34375 -1.78125q-0.34375 -0.5625 -1.09375 -0.5625q-0.734375 0 -1.078125 0.5625q-0.328125 0.546875 -0.34375 1.703125l0 1.546875q0 1.21875 0.359375 1.8125q0.359375 0.578125 1.078125 0.578125q0.703125 0 1.046875 -0.546875q0.359375 -0.546875 0.375 -1.734375l0 -1.578125zm5.3587036 4.546875l-0.96875 0l0 -6.421875l-1.9375 0.71875l0 -0.875l2.75 -1.03125l0.15625 0l0 7.609375zm6.4993896 -3.328125q-0.296875 0.359375 -0.71875 0.578125q-0.421875 0.21875 -0.921875 0.21875q-0.640625 0 -1.140625 -0.3125q-0.484375 -0.328125 -0.75 -0.90625q-0.265625 -0.59375 -0.265625 -1.3125q0 -0.75 0.28125 -1.359375q0.296875 -0.609375 0.828125 -0.9375q0.53125 -0.328125 1.234375 -0.328125q1.125 0 1.765625 0.84375q0.65625 0.84375 0.65625 2.296875l0 0.28125q0 2.203125 -0.875 3.234375q-0.875 1.015625 -2.625 1.03125l-0.1875 0l0 -0.8125l0.203125 0q1.1875 -0.015625 1.828125 -0.609375q0.640625 -0.609375 0.6875 -1.90625zm-1.484375 0q0.484375 0 0.890625 -0.296875q0.421875 -0.296875 0.609375 -0.734375l0 -0.390625q0 -0.9375 -0.421875 -1.53125q-0.40625 -0.59375 -1.03125 -0.59375q-0.640625 0 -1.03125 0.484375q-0.375 0.484375 -0.375 1.28125q0 0.78125 0.375 1.28125q0.375 0.5 0.984375 0.5z" fill-rule="nonzero"/></g></svg>